<svg class="diagram-root" style="background: #f5f6f6" xmlns="http://www.w3.org/2000/svg" xmlns:xlink="http://www.w3.org/1999/xlink"><style>.diagram-root { font-family: "Helvetica Neue", sans-serif; font-size: 12px; } .t { overflow: visible; } .t-bg { y: 40; fill: #fff;   } .th { fill: #005aa0;   } .tht { fill: #fff; font-size: 14px;  } .tf { fill: #323c46; overflow: visible; } .tf.pk { fill: #005aa0; font-weight: bold; } .tf.fk { font-weight: bold; } .ty { fill: #adb1b5; font-weight: normal; text-anchor: end; } .r { fill: transparent; stroke: #c3c3c3; stroke-width: 1; } .l { stroke: 1; } .i { fill: #c2c7ce; stroke: #c2c7ce; } .i.ix { fill: #afb3b6; stroke: #000; } .fa { fill: transparent; overflow: visible; } .fa .bg.hover { fill: #f7f7f7; } .c { cy: 12; r: 4; stroke: #d2d2dc; fill: #d2d2dc; } .hr { fill: transparent; stroke: #323c46; stroke-opacity: 0.035; stroke-width: 13; } .dc { stroke: #fa5a3c; fill: #fa5a3c; } .x { stroke: white; stroke-width: 1; } .hl .th { fill: #1b9bff; } .hl .tht {  } .fhl .bg { fill: #e7f4ff; } .fhls .bg {  } .r.hl { stroke: #1b9bff; } .dim { opacity: 0.25; }</style><g class="drawing-wrapper" transform="translate(-85, -1) scale(1,1)"><g class="rs"><path d="M 551 350 m -1, 0 a 1,1 0 1,0 2,0 a 1,1 0 1,0 -2,0 M 551 350 m -0.5, 0 a 0.5,0.5 0 1,0 1,0 a 0.5,0.5 0 1,0 -1,0  M551 350 L551 350 539 350 M 551 356 m -1, 0 a 1,1 0 1,0 2,0 a 1,1 0 1,0 -2,0 M 551 356 m -0.5, 0 a 0.5,0.5 0 1,0 1,0 a 0.5,0.5 0 1,0 -1,0  M551 356 L551 356 544 350 551 344 M 551 344 m -1, 0 a 1,1 0 1,0 2,0 a 1,1 0 1,0 -2,0 M 551 344 m -0.5, 0 a 0.5,0.5 0 1,0 1,0 a 0.5,0.5 0 1,0 -1,0  M539 350 Q 474.85 350, 410.69 237 T 282.38 124 M 270.38 124 m -1, 0 a 1,1 0 1,0 2,0 a 1,1 0 1,0 -2,0 M 270.38 124 m -0.5, 0 a 0.5,0.5 0 1,0 1,0 a 0.5,0.5 0 1,0 -1,0  M270.38 124 L270.38 124 282.38 124 M276.38 130 L276.38 130 276.38 118" id="h1139284389" class="r"></path><path d="M 551 375 m -1, 0 a 1,1 0 1,0 2,0 a 1,1 0 1,0 -2,0 M 551 375 m -0.5, 0 a 0.5,0.5 0 1,0 1,0 a 0.5,0.5 0 1,0 -1,0  M551 375 L551 375 539 375 M 551 381 m -1, 0 a 1,1 0 1,0 2,0 a 1,1 0 1,0 -2,0 M 551 381 m -0.5, 0 a 0.5,0.5 0 1,0 1,0 a 0.5,0.5 0 1,0 -1,0  M551 381 L551 381 544 375 551 369 M 551 369 m -1, 0 a 1,1 0 1,0 2,0 a 1,1 0 1,0 -2,0 M 551 369 m -0.5, 0 a 0.5,0.5 0 1,0 1,0 a 0.5,0.5 0 1,0 -1,0  M539 375 Q 477.35 375, 415.7 384 T 292.4 393 M 280.4 393 m -1, 0 a 1,1 0 1,0 2,0 a 1,1 0 1,0 -2,0 M 280.4 393 m -0.5, 0 a 0.5,0.5 0 1,0 1,0 a 0.5,0.5 0 1,0 -1,0  M280.4 393 L280.4 393 292.4 393 M286.4 399 L286.4 399 286.4 387" id="h1607168654" class="r"></path><path d="M 560 543 m -1, 0 a 1,1 0 1,0 2,0 a 1,1 0 1,0 -2,0 M 560 543 m -0.5, 0 a 0.5,0.5 0 1,0 1,0 a 0.5,0.5 0 1,0 -1,0  M560 543 L560 543 548 543 M 560 549 m -1, 0 a 1,1 0 1,0 2,0 a 1,1 0 1,0 -2,0 M 560 549 m -0.5, 0 a 0.5,0.5 0 1,0 1,0 a 0.5,0.5 0 1,0 -1,0  M560 549 L560 549 553 543 560 537 M 560 537 m -1, 0 a 1,1 0 1,0 2,0 a 1,1 0 1,0 -2,0 M 560 537 m -0.5, 0 a 0.5,0.5 0 1,0 1,0 a 0.5,0.5 0 1,0 -1,0  M548 543 Q 484.1 543, 420.2 468 T 292.4 393 M 280.4 393 m -1, 0 a 1,1 0 1,0 2,0 a 1,1 0 1,0 -2,0 M 280.4 393 m -0.5, 0 a 0.5,0.5 0 1,0 1,0 a 0.5,0.5 0 1,0 -1,0  M280.4 393 L280.4 393 292.4 393 M286.4 399 L286.4 399 286.4 387" id="h1397587031" class="r"></path><path d="M 560 568 m -1, 0 a 1,1 0 1,0 2,0 a 1,1 0 1,0 -2,0 M 560 568 m -0.5, 0 a 0.5,0.5 0 1,0 1,0 a 0.5,0.5 0 1,0 -1,0  M560 568 L560 568 548 568 M 560 574 m -1, 0 a 1,1 0 1,0 2,0 a 1,1 0 1,0 -2,0 M 560 574 m -0.5, 0 a 0.5,0.5 0 1,0 1,0 a 0.5,0.5 0 1,0 -1,0  M560 574 L560 574 553 568 560 562 M 560 562 m -1, 0 a 1,1 0 1,0 2,0 a 1,1 0 1,0 -2,0 M 560 562 m -0.5, 0 a 0.5,0.5 0 1,0 1,0 a 0.5,0.5 0 1,0 -1,0  M548 568 Q 481.6 568, 415.19 346 T 282.38 124 M 270.38 124 m -1, 0 a 1,1 0 1,0 2,0 a 1,1 0 1,0 -2,0 M 270.38 124 m -0.5, 0 a 0.5,0.5 0 1,0 1,0 a 0.5,0.5 0 1,0 -1,0  M270.38 124 L270.38 124 282.38 124 M276.38 130 L276.38 130 276.38 118" id="h2286254435" class="r"></path><path d="M 669 88 m -1, 0 a 1,1 0 1,0 2,0 a 1,1 0 1,0 -2,0 M 669 88 m -0.5, 0 a 0.5,0.5 0 1,0 1,0 a 0.5,0.5 0 1,0 -1,0  M669 88 L669 88 657 88 M 669 94 m -1, 0 a 1,1 0 1,0 2,0 a 1,1 0 1,0 -2,0 M 669 94 m -0.5, 0 a 0.5,0.5 0 1,0 1,0 a 0.5,0.5 0 1,0 -1,0  M669 94 L669 94 662 88 669 82 M 669 82 m -1, 0 a 1,1 0 1,0 2,0 a 1,1 0 1,0 -2,0 M 669 82 m -0.5, 0 a 0.5,0.5 0 1,0 1,0 a 0.5,0.5 0 1,0 -1,0  M657 88 Q 563.35 88, 469.69 106 T 282.38 124 M 270.38 124 m -1, 0 a 1,1 0 1,0 2,0 a 1,1 0 1,0 -2,0 M 270.38 124 m -0.5, 0 a 0.5,0.5 0 1,0 1,0 a 0.5,0.5 0 1,0 -1,0  M270.38 124 L270.38 124 282.38 124 M276.38 130 L276.38 130 276.38 118" id="h3177548053" class="r"></path><path d="M 802 262 m -1, 0 a 1,1 0 1,0 2,0 a 1,1 0 1,0 -2,0 M 802 262 m -0.5, 0 a 0.5,0.5 0 1,0 1,0 a 0.5,0.5 0 1,0 -1,0  M802 262 L802 262 790 262 M 802 268 m -1, 0 a 1,1 0 1,0 2,0 a 1,1 0 1,0 -2,0 M 802 268 m -0.5, 0 a 0.5,0.5 0 1,0 1,0 a 0.5,0.5 0 1,0 -1,0  M802 268 L802 268 795 262 802 256 M 802 256 m -1, 0 a 1,1 0 1,0 2,0 a 1,1 0 1,0 -2,0 M 802 256 m -0.5, 0 a 0.5,0.5 0 1,0 1,0 a 0.5,0.5 0 1,0 -1,0  M790 262 Q 663.1 262, 536.19 193 T 282.38 124 M 270.38 124 m -1, 0 a 1,1 0 1,0 2,0 a 1,1 0 1,0 -2,0 M 270.38 124 m -0.5, 0 a 0.5,0.5 0 1,0 1,0 a 0.5,0.5 0 1,0 -1,0  M270.38 124 L270.38 124 282.38 124 M276.38 130 L276.38 130 276.38 118" id="h3000826536" class="r"></path></g><g class="hrs"></g><g class="ts"><svg width="163.38" height="200" x="107" y="67" id="h1639608377" class="t"><rect height="40" width="163.38" class="th"></rect><text x="13" y="25" class="tht">employees</text><rect height="160" width="163.38" class="t-bg"></rect><text x="13" y="61" class="tf pk">emp_no<tspan x="150.38" class="ty">int</tspan></text><path d="M7,14A2,2 0 0,1 5,12A2,2 0 0,1 7,10A2,2 0 0,1 9,12A2,2 0 0,1 7,14M12.65,10C11.83,7.67 9.61,6 7, 6A6, 6 0 0, 0 1, 12A6, 6 0 0, 0 7, 18C9.61, 18 11.83, 16.33 12.65, 14H17V18H21V14H23V10H12.65Z" class="i pk" transform="translate(117.706171875, 48) scale(0.65)"></path><text x="13" y="86" class="tf">birth_date<tspan x="150.38" class="ty">varchar(8)</tspan></text><text x="13" y="111" class="tf">first_name<tspan x="150.38" class="ty">varchar(30)</tspan></text><text x="13" y="136" class="tf">last_name<tspan x="150.38" class="ty">varchar(30)</tspan></text><text x="13" y="161" class="tf">gender<tspan x="150.38" class="ty">varchar(1)</tspan></text><text x="13" y="186" class="tf">hire_date<tspan x="150.38" class="ty">varchar(8)</tspan></text></svg><svg width="167.4" height="100" x="113" y="336" id="h475896179" class="t"><rect height="40" width="167.4" class="th"></rect><text x="13" y="25" class="tht">departments</text><rect height="60" width="167.4" class="t-bg"></rect><text x="13" y="61" class="tf pk">dept_no<tspan x="154.4" class="ty">varchar(4)</tspan></text><path d="M7,14A2,2 0 0,1 5,12A2,2 0 0,1 7,10A2,2 0 0,1 9,12A2,2 0 0,1 7,14M12.65,10C11.83,7.67 9.61,6 7, 6A6, 6 0 0, 0 1, 12A6, 6 0 0, 0 7, 18C9.61, 18 11.83, 16.33 12.65, 14H17V18H21V14H23V10H12.65Z" class="i pk" transform="translate(79.7203125, 48) scale(0.65)"></path><text x="13" y="86" class="tf">dept_name<tspan x="154.4" class="ty">varchar(30)</tspan></text></svg><svg width="154.71" height="150" x="551" y="293" id="h1090417462" class="t"><rect height="40" width="154.71" class="th"></rect><text x="13" y="25" class="tht">dept_emp</text><rect height="110" width="154.71" class="t-bg"></rect><text x="13" y="61" class="tf fk">emp_no<tspan x="141.71" class="ty">int</tspan></text><text x="13" y="86" class="tf fk">dept_no<tspan x="141.71" class="ty">varchar(4)</tspan></text><text x="13" y="111" class="tf">from_date<tspan x="141.71" class="ty">varchar(8)</tspan></text><text x="13" y="136" class="tf">to_date<tspan x="141.71" class="ty">varchar(8)</tspan></text></svg><svg width="154.71" height="150" x="560" y="486" id="h1676682957" class="t"><rect height="40" width="154.71" class="th"></rect><text x="13" y="25" class="tht">dept_manager</text><rect height="110" width="154.71" class="t-bg"></rect><text x="13" y="61" class="tf fk">dept_no<tspan x="141.71" class="ty">varchar(4)</tspan></text><text x="13" y="86" class="tf fk">emp_no<tspan x="141.71" class="ty">int</tspan></text><text x="13" y="111" class="tf">from_date<tspan x="141.71" class="ty">varchar(8)</tspan></text><text x="13" y="136" class="tf">to_date<tspan x="141.71" class="ty">varchar(8)</tspan></text></svg><svg width="154.71" height="150" x="669" y="31" id="h2472833127" class="t"><rect height="40" width="154.71" class="th"></rect><text x="13" y="25" class="tht">salaries</text><rect height="110" width="154.71" class="t-bg"></rect><text x="13" y="61" class="tf fk">emp_no<tspan x="141.71" class="ty">int</tspan></text><text x="13" y="86" class="tf">salary<tspan x="141.71" class="ty">int</tspan></text><text x="13" y="111" class="tf">from_date<tspan x="141.71" class="ty">varchar(8)</tspan></text><text x="13" y="136" class="tf">to_date<tspan x="141.71" class="ty">varchar(8)</tspan></text></svg><svg width="154.71" height="150" x="802" y="205" id="h311790747" class="t"><rect height="40" width="154.71" class="th"></rect><text x="13" y="25" class="tht">titles</text><rect height="110" width="154.71" class="t-bg"></rect><text x="13" y="61" class="tf fk">emp_no<tspan x="141.71" class="ty">int</tspan></text><text x="13" y="86" class="tf">title<tspan x="141.71" class="ty">varchar(30)</tspan></text><text x="13" y="111" class="tf">from_date<tspan x="141.71" class="ty">varchar(8)</tspan></text><text x="13" y="136" class="tf">to_date<tspan x="141.71" class="ty">varchar(8)</tspan></text></svg></g></g><text class="qdbd-link" x="10" y="20">www.quickdatabasediagrams.com</text></svg>